<?xml version="1.0" encoding="UTF-8"?>
<svg xmlns="http://www.w3.org/2000/svg" xmlns:xlink="http://www.w3.org/1999/xlink" viewBox="0 0 34 34" width="34px" height="34px">
<g id="surface100288557">
<path style=" stroke:none;fill-rule:nonzero;fill:rgb(100%,100%,100%);fill-opacity:1;" d="M 17 3.398438 C 9.488281 3.398438 3.398438 9.488281 3.398438 17 C 3.398438 24.511719 9.488281 30.601562 17 30.601562 C 24.511719 30.601562 30.601562 24.511719 30.601562 17 C 30.601562 9.488281 24.511719 3.398438 17 3.398438 Z M 24.210938 21.496094 L 22.09375 21.527344 C 22.09375 21.527344 21.636719 21.613281 21.039062 21.203125 C 20.246094 20.660156 19.5 19.242188 18.917969 19.425781 C 18.324219 19.613281 18.34375 20.886719 18.34375 20.886719 C 18.34375 20.886719 18.347656 21.113281 18.214844 21.257812 C 18.066406 21.417969 17.78125 21.402344 17.78125 21.402344 L 16.832031 21.402344 C 16.832031 21.402344 14.738281 21.574219 12.894531 19.652344 C 10.886719 17.554688 9.113281 13.421875 9.113281 13.421875 C 9.113281 13.421875 9.007812 13.160156 9.121094 13.027344 C 9.246094 12.878906 9.585938 12.875 9.585938 12.875 L 11.851562 12.863281 C 11.851562 12.863281 12.0625 12.902344 12.21875 13.015625 C 12.34375 13.105469 12.414062 13.28125 12.414062 13.28125 C 12.414062 13.28125 12.78125 14.210938 13.269531 15.050781 C 14.214844 16.691406 14.65625 17.046875 14.976562 16.875 C 15.445312 16.617188 15.304688 14.554688 15.304688 14.554688 C 15.304688 14.554688 15.316406 13.808594 15.070312 13.476562 C 14.878906 13.214844 14.519531 13.140625 14.363281 13.121094 C 14.238281 13.101562 14.445312 12.804688 14.71875 12.671875 C 15.125 12.472656 15.847656 12.460938 16.699219 12.46875 C 17.359375 12.476562 17.550781 12.515625 17.808594 12.578125 C 18.59375 12.769531 18.328125 13.5 18.328125 15.25 C 18.328125 15.8125 18.226562 16.601562 18.628906 16.859375 C 18.804688 16.972656 19.230469 16.875 20.289062 15.070312 C 20.792969 14.214844 21.171875 13.207031 21.171875 13.207031 C 21.171875 13.207031 21.253906 13.027344 21.382812 12.949219 C 21.511719 12.871094 21.691406 12.894531 21.691406 12.894531 L 24.074219 12.882812 C 24.074219 12.882812 24.792969 12.796875 24.910156 13.121094 C 25.03125 13.460938 24.640625 14.253906 23.667969 15.554688 C 22.066406 17.691406 21.886719 17.492188 23.21875 18.726562 C 24.488281 19.90625 24.75 20.480469 24.792969 20.554688 C 25.316406 21.425781 24.210938 21.496094 24.210938 21.496094 Z M 24.210938 21.496094 "/>
</g>
</svg>
