<?xml version="1.0" encoding="UTF-8"?>
<svg xmlns="http://www.w3.org/2000/svg" xmlns:xlink="http://www.w3.org/1999/xlink" viewBox="0 0 24 24" width="24px" height="24px">
<g id="surface100007094">
<path style=" stroke:none;fill-rule:nonzero;fill:rgb(100%,100%,100%);fill-opacity:1;" d="M 5.875 2 C 5.554688 2 5.253906 2.152344 5.066406 2.410156 L 2.191406 6.375 C 2.066406 6.546875 2 6.75 2 6.964844 L 2 19 C 2 19.550781 2.449219 20 3 20 L 7 20 L 7 22 C 7 22.550781 7.449219 23 8 23 L 9.585938 23 C 9.851562 23 10.105469 22.894531 10.292969 22.707031 L 12.707031 20.292969 C 12.894531 20.105469 13.148438 20 13.414062 20 L 16.585938 20 C 16.851562 20 17.105469 19.894531 17.292969 19.707031 L 21.707031 15.292969 C 21.894531 15.105469 22 14.851562 22 14.585938 L 22 3 C 22 2.449219 21.550781 2 21 2 Z M 6 4 L 20 4 L 20 13 L 17 16 L 12 16 L 9 19 L 9 16 L 6 16 Z M 12 7 C 11.449219 7 11 7.449219 11 8 L 11 11 C 11 11.550781 11.449219 12 12 12 C 12.550781 12 13 11.550781 13 11 L 13 8 C 13 7.449219 12.550781 7 12 7 Z M 17 7 C 16.449219 7 16 7.449219 16 8 L 16 11 C 16 11.550781 16.449219 12 17 12 C 17.550781 12 18 11.550781 18 11 L 18 8 C 18 7.449219 17.550781 7 17 7 Z M 17 7 "/>
</g>
</svg>
