<?xml version="1.0" encoding="UTF-8"?>
<svg xmlns="http://www.w3.org/2000/svg" xmlns:xlink="http://www.w3.org/1999/xlink" viewBox="0 0 33 33" width="33px" height="33px">
<g id="surface100265772">
<path style=" stroke:none;fill-rule:nonzero;fill:rgb(100%,100%,100%);fill-opacity:1;" d="M 16.5 2.75 C 8.90625 2.75 2.75 8.90625 2.75 16.5 C 2.75 23.394531 7.828125 29.085938 14.445312 30.078125 L 14.445312 20.144531 L 11.042969 20.144531 L 11.042969 16.527344 L 14.445312 16.527344 L 14.445312 14.125 C 14.445312 10.140625 16.382812 8.394531 19.695312 8.394531 C 21.28125 8.394531 22.117188 8.511719 22.515625 8.566406 L 22.515625 11.71875 L 20.257812 11.71875 C 18.851562 11.71875 18.359375 13.050781 18.359375 14.554688 L 18.359375 16.527344 L 22.476562 16.527344 L 21.921875 20.144531 L 18.363281 20.144531 L 18.363281 30.109375 C 25.074219 29.199219 30.25 23.460938 30.25 16.5 C 30.25 8.90625 24.09375 2.75 16.5 2.75 Z M 16.5 2.75 "/>
</g>
</svg>
