<?xml version="1.0" encoding="UTF-8"?>
<svg xmlns="http://www.w3.org/2000/svg" xmlns:xlink="http://www.w3.org/1999/xlink" viewBox="0 0 26 26" width="26px" height="26px">
<g id="surface100283797">
<path style=" stroke:none;fill-rule:nonzero;fill:rgb(100%,100%,100%);fill-opacity:1;" d="M 8.664062 2.601562 C 5.320312 2.601562 2.601562 5.324219 2.601562 8.667969 L 2.601562 17.335938 C 2.601562 20.679688 5.324219 23.398438 8.667969 23.398438 L 17.335938 23.398438 C 20.679688 23.398438 23.398438 20.675781 23.398438 17.332031 L 23.398438 8.664062 C 23.398438 5.320312 20.675781 2.601562 17.332031 2.601562 Z M 19.066406 6.066406 C 19.546875 6.066406 19.933594 6.453125 19.933594 6.933594 C 19.933594 7.410156 19.546875 7.800781 19.066406 7.800781 C 18.589844 7.800781 18.199219 7.410156 18.199219 6.933594 C 18.199219 6.453125 18.589844 6.066406 19.066406 6.066406 Z M 13 7.800781 C 15.867188 7.800781 18.199219 10.132812 18.199219 13 C 18.199219 15.867188 15.867188 18.199219 13 18.199219 C 10.132812 18.199219 7.800781 15.867188 7.800781 13 C 7.800781 10.132812 10.132812 7.800781 13 7.800781 Z M 13 9.535156 C 11.085938 9.535156 9.535156 11.085938 9.535156 13 C 9.535156 14.914062 11.085938 16.464844 13 16.464844 C 14.914062 16.464844 16.464844 14.914062 16.464844 13 C 16.464844 11.085938 14.914062 9.535156 13 9.535156 Z M 13 9.535156 "/>
</g>
</svg>
